<?xml version="1.0" encoding="UTF-8"?>
<svg width="146px" height="32px" viewBox="0 0 146 32" version="1.1" xmlns="http://www.w3.org/2000/svg" xmlns:xlink="http://www.w3.org/1999/xlink">
    <title>Ember Twiddle Button</title>
    <defs>
        <linearGradient x1="50%" y1="0%" x2="50%" y2="100%" id="linearGradient-1">
            <stop stop-color="#E1563F" offset="0%"></stop>
            <stop stop-color="#E76D5A" offset="100%"></stop>
        </linearGradient>
        <rect id="path-2" x="0" y="0" width="146" height="32" rx="4"></rect>
    </defs>
    <g id="Page-1" stroke="none" stroke-width="1" fill="none" fill-rule="evenodd">
        <g id="Ember-Twiddle-Button">
            <mask id="mask-3" fill="white">
                <use xlink:href="#path-2"></use>
            </mask>
            <use id="Rectangle" fill="url(#linearGradient-1)" xlink:href="#path-2"></use>
            <path d="M144,0 L0,0 L0,6.51 C15.2449363,13.49 39.4203383,18 66.6527459,18 C101.622886,18 131.571518,10.56 144,0 Z" id="top-left" fill="#FFFFFF" fill-rule="nonzero" opacity="0.08" mask="url(#mask-3)"></path>
            <path d="M146,9.00724638 L146,0 L76,0 C86.6335545,6 105.752178,10 127.563667,10 C133.994608,10 140.186022,9.65217391 146,9.00724638 Z" id="top-right" fill="#FFFFFF" fill-rule="nonzero" opacity="0.1" mask="url(#mask-3)"></path>
            <g id="E-Icon-1c-White-Rounded-Rectangle" mask="url(#mask-3)" fill="#FFFFFF" fill-rule="nonzero">
                <g transform="translate(6.000000, 7.000000)" id="Combined-Shape">
                    <path d="M1.73076923,0 L16.2692308,0 C17.2251082,0 18,0.774891779 18,1.73076923 L18,16.2692308 C18,17.2251082 17.2251082,18 16.2692308,18 L1.73076923,18 C0.774891779,18 0,17.2251082 0,16.2692308 L0,1.73076923 C0,0.774891779 0.774891779,0 1.73076923,0 Z M9.11556222,12.0387783 C7.42260686,12.0814317 7.60084919,10.9693244 7.60084919,10.9693244 C7.60084919,10.9693244 13.7817661,8.85399709 12.0964398,4.67570558 C11.3390833,3.6007032 10.4589684,3.26294439 9.21335275,3.28756541 C7.96739032,3.31183966 6.4332579,4.0716236 5.43142502,6.31976567 C4.95356913,7.3926874 4.79127845,8.40908482 4.69383469,9.17927201 C4.69383469,9.17927201 3.59906612,9.39912733 3.01266967,8.91156174 C2.42661998,8.42330258 2.11833705,8.91156174 2.11833705,8.91156174 C2.11833705,8.91156174 1.10887513,10.0926773 2.11105477,10.4841862 C3.11288763,10.8753483 4.67302818,10.954413 4.67302818,10.954413 L4.67233463,10.954413 C4.81589947,11.9947379 5.16926315,12.9948369 6.45371761,13.8302178 C8.6075369,15.2315355 11.8037617,13.7514999 11.8037617,13.7514999 C13.7193466,12.9507965 14.9916639,11.7114228 15.53402,11.1076876 C15.7087946,10.9124533 15.7028993,10.6180413 15.5211893,10.4293957 L14.8973411,9.78127334 C14.7170181,9.59366808 14.4236465,9.57632933 14.222517,9.74139422 C13.3892168,10.4238473 11.1989862,12.0387783 9.11556222,12.0387783 Z M7.30747756,9.08252179 C7.38099385,6.17516051 9.28652227,4.90457706 9.94643502,5.54056234 C10.6063478,6.17516051 10.3615247,7.54318773 9.11556222,8.3983348 C7.86994656,9.25382862 7.30747756,9.08252179 7.30747756,9.08252179 Z"></path>
                </g>
            </g>
            <path d="M33.4179688,20.1171875 C34.1171875,20.1171875 34.7353516,19.9482422 35.2724609,19.6103516 C35.8095703,19.2724609 36.2226562,18.7880859 36.5117188,18.1572266 C36.8007812,17.5263672 36.9453125,16.7929688 36.9453125,15.9570312 L36.9453125,15.9570312 L36.9453125,15.4824219 C36.9414062,14.6503906 36.7929688,13.9208984 36.5,13.2939453 C36.2070312,12.6669922 35.7919922,12.1865234 35.2548828,11.8525391 C34.7177734,11.5185547 34.1015625,11.3515625 33.40625,11.3515625 C32.7109375,11.3515625 32.0947266,11.5205078 31.5576172,11.8583984 C31.0205078,12.1962891 30.6044922,12.6835938 30.3095703,13.3203125 C30.0146484,13.9570312 29.8671875,14.6914062 29.8671875,15.5234375 L29.8671875,15.5234375 L29.8671875,16.0039062 C29.8710938,16.8203125 30.0205078,17.5410156 30.3154297,18.1660156 C30.6103516,18.7910156 31.0283203,19.2724609 31.5693359,19.6103516 C32.1103516,19.9482422 32.7265625,20.1171875 33.4179688,20.1171875 Z M33.4179688,18.8984375 C32.7695312,18.8984375 32.2626953,18.6425781 31.8974609,18.1308594 C31.5322266,17.6191406 31.3496094,16.8945312 31.3496094,15.9570312 L31.3496094,15.9570312 L31.3496094,15.4648438 C31.3574219,14.546875 31.5419922,13.8369141 31.9033203,13.3349609 C32.2646484,12.8330078 32.765625,12.5820312 33.40625,12.5820312 C34.0625,12.5820312 34.5693359,12.8339844 34.9267578,13.3378906 C35.2841797,13.8417969 35.4628906,14.5664062 35.4628906,15.5117188 L35.4628906,15.5117188 L35.4628906,15.9570312 C35.4628906,16.9179688 35.2861328,17.6484375 34.9326172,18.1484375 C34.5791016,18.6484375 34.0742188,18.8984375 33.4179688,18.8984375 Z M39.7050781,22.4375 L39.7050781,19.4316406 C40.1230469,19.8886719 40.6796875,20.1171875 41.375,20.1171875 C42.125,20.1171875 42.7226562,19.8251953 43.1679688,19.2412109 C43.6132812,18.6572266 43.8359375,17.875 43.8359375,16.8945312 L43.8359375,16.8945312 L43.8359375,16.8066406 C43.8359375,15.7832031 43.6162109,14.9833984 43.1767578,14.4072266 C42.7373047,13.8310547 42.1308594,13.5429688 41.3574219,13.5429688 C40.6386719,13.5429688 40.0703125,13.796875 39.6523438,14.3046875 L39.6523438,14.3046875 L39.59375,13.6601562 L38.28125,13.6601562 L38.28125,22.4375 L39.7050781,22.4375 Z M40.9707031,18.9804688 C40.3847656,18.9804688 39.9628906,18.734375 39.7050781,18.2421875 L39.7050781,18.2421875 L39.7050781,15.4296875 C39.9589844,14.9492188 40.3769531,14.7089844 40.9589844,14.7089844 C41.4277344,14.7089844 41.7880859,14.8945312 42.0400391,15.265625 C42.2919922,15.6367188 42.4179688,16.1386719 42.4179688,16.7714844 C42.4179688,17.5136719 42.2900391,18.0673828 42.0341797,18.4326172 C41.7783203,18.7978516 41.4238281,18.9804688 40.9707031,18.9804688 Z M47.8320312,20.1171875 C48.359375,20.1171875 48.8349609,20.0126953 49.2587891,19.8037109 C49.6826172,19.5947266 50.0214844,19.3007812 50.2753906,18.921875 L50.2753906,18.921875 L49.5078125,18.1894531 C49.0976562,18.7167969 48.5664062,18.9804688 47.9140625,18.9804688 C47.4492188,18.9804688 47.0634766,18.828125 46.7568359,18.5234375 C46.4501953,18.21875 46.2753906,17.8046875 46.2324219,17.28125 L46.2324219,17.28125 L50.375,17.28125 L50.375,16.7070312 C50.375,15.6992188 50.1396484,14.9199219 49.6689453,14.3691406 C49.1982422,13.8183594 48.53125,13.5429688 47.6679688,13.5429688 C47.125,13.5429688 46.6328125,13.6816406 46.1914062,13.9589844 C45.75,14.2363281 45.4072266,14.6240234 45.1630859,15.1220703 C44.9189453,15.6201172 44.796875,16.1855469 44.796875,16.8183594 L44.796875,16.8183594 L44.796875,16.9941406 C44.796875,17.9394531 45.0771484,18.6962891 45.6376953,19.2646484 C46.1982422,19.8330078 46.9296875,20.1171875 47.8320312,20.1171875 Z M48.96875,16.2382812 L46.2558594,16.2382812 C46.3222656,15.75 46.4755859,15.3691406 46.7158203,15.0957031 C46.9560547,14.8222656 47.2714844,14.6855469 47.6621094,14.6855469 C48.0566406,14.6855469 48.3652344,14.8076172 48.5878906,15.0517578 C48.8105469,15.2958984 48.9375,15.65625 48.96875,16.1328125 L48.96875,16.1328125 L48.96875,16.2382812 Z M52.8828125,20 L52.8828125,15.4882812 C53.1640625,14.96875 53.5917969,14.7089844 54.1660156,14.7089844 C54.5605469,14.7089844 54.8447266,14.8056641 55.0185547,14.9990234 C55.1923828,15.1923828 55.2792969,15.4902344 55.2792969,15.8925781 L55.2792969,15.8925781 L55.2792969,20 L56.703125,20 L56.703125,15.8105469 C56.6796875,14.2988281 56.0078125,13.5429688 54.6875,13.5429688 C53.9257812,13.5429688 53.3105469,13.8261719 52.8417969,14.3925781 L52.8417969,14.3925781 L52.8007812,13.6601562 L51.4589844,13.6601562 L51.4589844,20 L52.8828125,20 Z M66.8574219,20 L66.8574219,18.8164062 L62.7617188,18.8164062 L62.7617188,16.1914062 L66.265625,16.1914062 L66.265625,15.0195312 L62.7617188,15.0195312 L62.7617188,12.6640625 L66.8164062,12.6640625 L66.8164062,11.46875 L61.2792969,11.46875 L61.2792969,20 L66.8574219,20 Z M69.3476562,20 L69.3476562,15.40625 C69.5859375,14.9414062 69.9902344,14.7089844 70.5605469,14.7089844 C71.3027344,14.7089844 71.6835938,15.0820312 71.703125,15.828125 L71.703125,15.828125 L71.703125,20 L73.1269531,20 L73.1210938,15.6523438 C73.203125,15.3710938 73.3466797,15.1435547 73.5517578,14.9697266 C73.7568359,14.7958984 74.0214844,14.7089844 74.3457031,14.7089844 C74.7519531,14.7089844 75.0429688,14.8027344 75.21875,14.9902344 C75.3945312,15.1777344 75.4824219,15.4726562 75.4824219,15.875 L75.4824219,15.875 L75.4824219,20 L76.90625,20 L76.90625,15.8339844 C76.8984375,15.0800781 76.7236328,14.5097656 76.3818359,14.1230469 C76.0400391,13.7363281 75.5195312,13.5429688 74.8203125,13.5429688 C73.984375,13.5429688 73.3359375,13.8671875 72.875,14.515625 C72.5625,13.8671875 71.9824219,13.5429688 71.1347656,13.5429688 C70.3613281,13.5429688 69.7519531,13.8027344 69.3066406,14.3222656 L69.3066406,14.3222656 L69.265625,13.6601562 L67.9238281,13.6601562 L67.9238281,20 L69.3476562,20 Z M81.4589844,20.1171875 C82.2285156,20.1171875 82.8330078,19.8261719 83.2724609,19.2441406 C83.7119141,18.6621094 83.9316406,17.8789062 83.9316406,16.8945312 L83.9316406,16.8945312 L83.9316406,16.8125 C83.9316406,15.78125 83.7109375,14.9785156 83.2695312,14.4042969 C82.828125,13.8300781 82.2207031,13.5429688 81.4472656,13.5429688 C80.7519531,13.5429688 80.1992188,13.7851562 79.7890625,14.2695312 L79.7890625,14.2695312 L79.7890625,11 L78.3652344,11 L78.3652344,20 L79.6542969,20 L79.7246094,19.3144531 C80.1386719,19.8496094 80.7167969,20.1171875 81.4589844,20.1171875 Z M81.1015625,18.9570312 C80.4804688,18.9570312 80.0429688,18.6816406 79.7890625,18.1308594 L79.7890625,18.1308594 L79.7890625,15.5175781 C80.0390625,14.9785156 80.4726562,14.7089844 81.0898438,14.7089844 C81.5507812,14.7089844 81.9023438,14.8808594 82.1445312,15.2246094 C82.3867188,15.5683594 82.5078125,16.0839844 82.5078125,16.7714844 L82.5078125,16.7714844 L82.5078125,16.953125 C82.5,17.625 82.375,18.1269531 82.1328125,18.4589844 C81.890625,18.7910156 81.546875,18.9570312 81.1015625,18.9570312 Z M87.9160156,20.1171875 C88.4433594,20.1171875 88.9189453,20.0126953 89.3427734,19.8037109 C89.7666016,19.5947266 90.1054688,19.3007812 90.359375,18.921875 L90.359375,18.921875 L89.5917969,18.1894531 C89.1816406,18.7167969 88.6503906,18.9804688 87.9980469,18.9804688 C87.5332031,18.9804688 87.1474609,18.828125 86.8408203,18.5234375 C86.5341797,18.21875 86.359375,17.8046875 86.3164062,17.28125 L86.3164062,17.28125 L90.4589844,17.28125 L90.4589844,16.7070312 C90.4589844,15.6992188 90.2236328,14.9199219 89.7529297,14.3691406 C89.2822266,13.8183594 88.6152344,13.5429688 87.7519531,13.5429688 C87.2089844,13.5429688 86.7167969,13.6816406 86.2753906,13.9589844 C85.8339844,14.2363281 85.4912109,14.6240234 85.2470703,15.1220703 C85.0029297,15.6201172 84.8808594,16.1855469 84.8808594,16.8183594 L84.8808594,16.8183594 L84.8808594,16.9941406 C84.8808594,17.9394531 85.1611328,18.6962891 85.7216797,19.2646484 C86.2822266,19.8330078 87.0136719,20.1171875 87.9160156,20.1171875 Z M89.0527344,16.2382812 L86.3398438,16.2382812 C86.40625,15.75 86.5595703,15.3691406 86.7998047,15.0957031 C87.0400391,14.8222656 87.3554688,14.6855469 87.7460938,14.6855469 C88.140625,14.6855469 88.4492188,14.8076172 88.671875,15.0517578 C88.8945312,15.2958984 89.0214844,15.65625 89.0527344,16.1328125 L89.0527344,16.1328125 L89.0527344,16.2382812 Z M92.984375,20 L92.984375,15.6640625 C93.2109375,15.1640625 93.6503906,14.9140625 94.3027344,14.9140625 C94.5019531,14.9140625 94.6953125,14.9296875 94.8828125,14.9609375 L94.8828125,14.9609375 L94.8886719,13.625 C94.7558594,13.5703125 94.5878906,13.5429688 94.3847656,13.5429688 C93.7753906,13.5429688 93.2988281,13.8183594 92.9550781,14.3691406 L92.9550781,14.3691406 L92.9199219,13.6601562 L91.5605469,13.6601562 L91.5605469,20 L92.984375,20 Z M102.060547,20 L102.060547,12.6640625 L104.720703,12.6640625 L104.720703,11.46875 L97.953125,11.46875 L97.953125,12.6640625 L100.589844,12.6640625 L100.589844,20 L102.060547,20 Z M107.796875,20 L109.132812,15.6464844 L110.492188,20 L111.664062,20 L113.392578,13.6601562 L112.003906,13.6601562 L110.996094,18.0371094 L109.677734,13.6601562 L108.605469,13.6601562 L107.304688,17.9902344 L106.279297,13.6601562 L104.890625,13.6601562 L106.625,20 L107.796875,20 Z M115.150391,12.7636719 C115.408203,12.7636719 115.607422,12.6923828 115.748047,12.5498047 C115.888672,12.4072266 115.958984,12.2285156 115.958984,12.0136719 C115.958984,11.7949219 115.888672,11.6132812 115.748047,11.46875 C115.607422,11.3242188 115.408203,11.2519531 115.150391,11.2519531 C114.892578,11.2519531 114.694336,11.3242188 114.555664,11.46875 C114.416992,11.6132812 114.347656,11.7949219 114.347656,12.0136719 C114.347656,12.2285156 114.416992,12.4072266 114.555664,12.5498047 C114.694336,12.6923828 114.892578,12.7636719 115.150391,12.7636719 Z M115.859375,20 L115.859375,13.6601562 L114.435547,13.6601562 L114.435547,20 L115.859375,20 Z M119.632812,20.1171875 C120.34375,20.1171875 120.912109,19.859375 121.337891,19.34375 L121.337891,19.34375 L121.408203,20 L122.697266,20 L122.697266,11 L121.273438,11 L121.273438,14.2460938 C120.859375,13.7773438 120.316406,13.5429688 119.644531,13.5429688 C118.882812,13.5429688 118.275391,13.8388672 117.822266,14.4306641 C117.369141,15.0224609 117.142578,15.8066406 117.142578,16.7832031 C117.142578,17.8105469 117.37207,18.6230469 117.831055,19.2207031 C118.290039,19.8183594 118.890625,20.1171875 119.632812,20.1171875 Z M119.996094,18.9570312 C119.539062,18.9570312 119.186523,18.7763672 118.938477,18.4150391 C118.69043,18.0537109 118.566406,17.5507812 118.566406,16.90625 C118.566406,16.171875 118.691406,15.6220703 118.941406,15.2568359 C119.191406,14.8916016 119.546875,14.7089844 120.007812,14.7089844 C120.589844,14.7089844 121.011719,14.9628906 121.273438,15.4707031 L121.273438,15.4707031 L121.273438,18.1777344 C121.003906,18.6972656 120.578125,18.9570312 119.996094,18.9570312 Z M126.40625,20.1171875 C127.117188,20.1171875 127.685547,19.859375 128.111328,19.34375 L128.111328,19.34375 L128.181641,20 L129.470703,20 L129.470703,11 L128.046875,11 L128.046875,14.2460938 C127.632812,13.7773438 127.089844,13.5429688 126.417969,13.5429688 C125.65625,13.5429688 125.048828,13.8388672 124.595703,14.4306641 C124.142578,15.0224609 123.916016,15.8066406 123.916016,16.7832031 C123.916016,17.8105469 124.145508,18.6230469 124.604492,19.2207031 C125.063477,19.8183594 125.664062,20.1171875 126.40625,20.1171875 Z M126.769531,18.9570312 C126.3125,18.9570312 125.959961,18.7763672 125.711914,18.4150391 C125.463867,18.0537109 125.339844,17.5507812 125.339844,16.90625 C125.339844,16.171875 125.464844,15.6220703 125.714844,15.2568359 C125.964844,14.8916016 126.320312,14.7089844 126.78125,14.7089844 C127.363281,14.7089844 127.785156,14.9628906 128.046875,15.4707031 L128.046875,15.4707031 L128.046875,18.1777344 C127.777344,18.6972656 127.351562,18.9570312 126.769531,18.9570312 Z M132.470703,20 L132.470703,11 L131.046875,11 L131.046875,20 L132.470703,20 Z M136.8125,20.1171875 C137.339844,20.1171875 137.81543,20.0126953 138.239258,19.8037109 C138.663086,19.5947266 139.001953,19.3007812 139.255859,18.921875 L139.255859,18.921875 L138.488281,18.1894531 C138.078125,18.7167969 137.546875,18.9804688 136.894531,18.9804688 C136.429688,18.9804688 136.043945,18.828125 135.737305,18.5234375 C135.430664,18.21875 135.255859,17.8046875 135.212891,17.28125 L135.212891,17.28125 L139.355469,17.28125 L139.355469,16.7070312 C139.355469,15.6992188 139.120117,14.9199219 138.649414,14.3691406 C138.178711,13.8183594 137.511719,13.5429688 136.648438,13.5429688 C136.105469,13.5429688 135.613281,13.6816406 135.171875,13.9589844 C134.730469,14.2363281 134.387695,14.6240234 134.143555,15.1220703 C133.899414,15.6201172 133.777344,16.1855469 133.777344,16.8183594 L133.777344,16.8183594 L133.777344,16.9941406 C133.777344,17.9394531 134.057617,18.6962891 134.618164,19.2646484 C135.178711,19.8330078 135.910156,20.1171875 136.8125,20.1171875 Z M137.949219,16.2382812 L135.236328,16.2382812 C135.302734,15.75 135.456055,15.3691406 135.696289,15.0957031 C135.936523,14.8222656 136.251953,14.6855469 136.642578,14.6855469 C137.037109,14.6855469 137.345703,14.8076172 137.568359,15.0517578 C137.791016,15.2958984 137.917969,15.65625 137.949219,16.1328125 L137.949219,16.1328125 L137.949219,16.2382812 Z" id="OpenEmberTwiddle" fill="#FFFFFF" fill-rule="nonzero" mask="url(#mask-3)"></path>
        </g>
    </g>
</svg>