<?xml version="1.0" encoding="UTF-8"?>
<svg width="146px" height="32px" viewBox="0 0 146 32" version="1.1" xmlns="http://www.w3.org/2000/svg" xmlns:xlink="http://www.w3.org/1999/xlink">
    <title>Ember Twiddle Button</title>
    <defs>
        <linearGradient x1="50%" y1="0%" x2="50%" y2="100%" id="linearGradient-1">
            <stop stop-color="#E1563F" offset="0%"></stop>
            <stop stop-color="#E76D5A" offset="100%"></stop>
        </linearGradient>
        <rect id="path-2" x="0" y="0" width="146" height="32" rx="4"></rect>
    </defs>
    <g id="Page-1" stroke="none" stroke-width="1" fill="none" fill-rule="evenodd">
        <g id="Ember-Twiddle-Button">
            <mask id="mask-3" fill="white">
                <use xlink:href="#path-2"></use>
            </mask>
            <use id="Rectangle" fill="url(#linearGradient-1)" xlink:href="#path-2"></use>
            <path d="M144,0 L0,0 L0,6.51 C15.2449363,13.49 39.4203383,18 66.6527459,18 C101.622886,18 131.571518,10.56 144,0 Z" id="top-left" fill="#FFFFFF" fill-rule="nonzero" opacity="0.08" mask="url(#mask-3)"></path>
            <path d="M146,9.00724638 L146,0 L76,0 C86.6335545,6 105.752178,10 127.563667,10 C133.994608,10 140.186022,9.65217391 146,9.00724638 Z" id="top-right" fill="#FFFFFF" fill-rule="nonzero" opacity="0.1" mask="url(#mask-3)"></path>
            <g id="E-Icon-1c-White-Rounded-Rectangle" mask="url(#mask-3)" fill="#FFFFFF" fill-rule="nonzero">
                <g transform="translate(6.000000, 7.000000)" id="Combined-Shape">
                    <path d="M1.73076923,0 L16.2692308,0 C17.2251082,0 18,0.774891779 18,1.73076923 L18,16.2692308 C18,17.2251082 17.2251082,18 16.2692308,18 L1.73076923,18 C0.774891779,18 0,17.2251082 0,16.2692308 L0,1.73076923 C0,0.774891779 0.774891779,0 1.73076923,0 Z M9.11556222,12.0387783 C7.42260686,12.0814317 7.60084919,10.9693244 7.60084919,10.9693244 C7.60084919,10.9693244 13.7817661,8.85399709 12.0964398,4.67570558 C11.3390833,3.6007032 10.4589684,3.26294439 9.21335275,3.28756541 C7.96739032,3.31183966 6.4332579,4.0716236 5.43142502,6.31976567 C4.95356913,7.3926874 4.79127845,8.40908482 4.69383469,9.17927201 C4.69383469,9.17927201 3.59906612,9.39912733 3.01266967,8.91156174 C2.42661998,8.42330258 2.11833705,8.91156174 2.11833705,8.91156174 C2.11833705,8.91156174 1.10887513,10.0926773 2.11105477,10.4841862 C3.11288763,10.8753483 4.67302818,10.954413 4.67302818,10.954413 L4.67233463,10.954413 C4.81589947,11.9947379 5.16926315,12.9948369 6.45371761,13.8302178 C8.6075369,15.2315355 11.8037617,13.7514999 11.8037617,13.7514999 C13.7193466,12.9507965 14.9916639,11.7114228 15.53402,11.1076876 C15.7087946,10.9124533 15.7028993,10.6180413 15.5211893,10.4293957 L14.8973411,9.78127334 C14.7170181,9.59366808 14.4236465,9.57632933 14.222517,9.74139422 C13.3892168,10.4238473 11.1989862,12.0387783 9.11556222,12.0387783 Z M7.30747756,9.08252179 C7.38099385,6.17516051 9.28652227,4.90457706 9.94643502,5.54056234 C10.6063478,6.17516051 10.3615247,7.54318773 9.11556222,8.3983348 C7.86994656,9.25382862 7.30747756,9.08252179 7.30747756,9.08252179 Z"></path>
                </g>
            </g>
            <text id="Open-Ember-Twiddle" mask="url(#mask-3)" font-family="Roboto-Medium, Roboto" font-size="12" font-weight="400" fill="#FFFFFF">
                <tspan x="29.2695312" y="20">Open Ember Twiddle</tspan>
            </text>
        </g>
    </g>
</svg>